<svg width="31" height="31" viewBox="0 0 30 30" fill="none" xmlns="http://www.w3.org/2000/svg">
<path d="M15 29C22.732 29 29 22.732 29 15C29 7.26801 22.732 1 15 1C7.26801 1 1 7.26801 1 15C1 22.732 7.26801 29 15 29Z" stroke="black" stroke-width="2" stroke-linecap="round" stroke-linejoin="round"/>
<path d="M10.926 10.8C11.2552 9.86431 11.9048 9.07533 12.76 8.57277C13.6151 8.0702 14.6205 7.88649 15.5981 8.05418C16.5757 8.22186 17.4624 8.73011 18.1011 9.48892C18.7399 10.2477 19.0895 11.2081 19.088 12.2C19.088 15 14.888 16.4 14.888 16.4" stroke="black" stroke-width="2" stroke-linecap="round" stroke-linejoin="round"/>
<path d="M15 22H15.014" stroke="black" stroke-width="2" stroke-linecap="round" stroke-linejoin="round"/>
</svg>
