<svg width="127" height="42" viewBox="0 0 127 42" fill="none" xmlns="http://www.w3.org/2000/svg">
<path d="M5.93608 41L8.74006 32.9162H20.6719L23.4609 41H28.353L17.3608 10.4545H12.0362L1.04403 41H5.93608ZM10.0824 29.0384L14.5866 16.0028H14.8253L19.3295 29.0384H10.0824ZM36.8656 27.3977C36.8656 23.7436 39.1028 21.6555 42.2051 21.6555C45.2328 21.6555 47.0673 23.6392 47.0673 26.9652V41H51.5268V26.4283C51.5268 20.7607 48.4096 17.7926 43.7264 17.7926C40.2811 17.7926 38.0289 19.3885 36.97 21.8196H36.6866V18.0909H32.4061V41H36.8656V27.3977ZM57.5076 41H61.9672V18.0909H57.5076V41ZM59.7598 14.5561C61.296 14.5561 62.5787 13.3629 62.5787 11.9013C62.5787 10.4396 61.296 9.23153 59.7598 9.23153C58.2086 9.23153 56.9409 10.4396 56.9409 11.9013C56.9409 13.3629 58.2086 14.5561 59.7598 14.5561ZM68.3246 41H72.6797V37.4354H73.0526C73.858 38.897 75.4986 41.4474 79.6747 41.4474C85.223 41.4474 89.25 37.0028 89.25 29.5902C89.25 22.1626 85.1634 17.7926 79.63 17.7926C75.3793 17.7926 73.843 20.3878 73.0526 21.8047H72.7841V10.4545H68.3246V41ZM72.6946 29.5455C72.6946 24.7578 74.7827 21.581 78.6754 21.581C82.7173 21.581 84.7457 24.9964 84.7457 29.5455C84.7457 34.1392 82.6577 37.6442 78.6754 37.6442C74.8423 37.6442 72.6946 34.3629 72.6946 29.5455ZM98.7172 10.4545H94.2576V41H98.7172V10.4545ZM114.59 41.4624C119.587 41.4624 123.121 39.0014 124.136 35.2727L119.915 34.5121C119.109 36.6747 117.17 37.7784 114.635 37.7784C110.817 37.7784 108.251 35.3026 108.132 30.8878H124.419V29.3068C124.419 21.0291 119.467 17.7926 114.277 17.7926C107.893 17.7926 103.688 22.6548 103.688 29.6946C103.688 36.8089 107.834 41.4624 114.59 41.4624ZM108.147 27.5469C108.326 24.2955 110.683 21.4766 114.307 21.4766C117.767 21.4766 120.034 24.0419 120.049 27.5469H108.147Z" fill="#000"/>
<ellipse cx="59.77" cy="11.925" rx="2.8" ry="2.675" fill="#4285F4"/>
</svg>
